# xmcd CD database file
#
# Track frame offsets:
#	150
#	11327
#	28467
#	42560
#	58907
#	74347
#	90062
#	103042
#	123675
#	141987
#	156662
#	176072
#	192537
#	206267
#	228922
#
# Disc length: 3227 seconds
#
# Revision: 2
# Processed by: cddbd v1.4PL0 Copyright (c) Steve Scherf et al.
# Submitted via: CDex 1.51
#
DISCID=dd0c990f
DTITLE=Victor Rathnayake - Samaru Leyaval
DYEAR=2000
DGENRE=Sinhala
TTITLE0=Intorduction
TTITLE1=Moohen mulaa velaa
TTITLE2=Sihina sathak
TTITLE3=Kurullanta gii
TTITLE4=Dhaivayoogaya
TTITLE5=Sitha mithuru sulanga
TTITLE6=Sandhata ahasa
TTITLE7=Thani tharuvee
TTITLE8=Nangiyee malliyee
TTITLE9=Api okkoma rajavaru
TTITLE10=Aadharayee ulpatha ammaa
TTITLE11=Paavee valaa
TTITLE12=Dhevuram veheree
TTITLE13=Thotupola ayinee
TTITLE14=Sandha hiru tharu
EXTD=YEAR: 2000
EXTT0=
EXTT1=
EXTT2=
EXTT3=
EXTT4=
EXTT5=
EXTT6=
EXTT7=
EXTT8=
EXTT9=
EXTT10=
EXTT11=
EXTT12=
EXTT13=
EXTT14=
PLAYORDER=
